<svg id="Layer_5" enable-background="new 0 0 64 64" height="512" viewBox="0 0 64 64" width="512" xmlns="http://www.w3.org/2000/svg"><g><g><g><path d="m57.49 18.98c.53-.05 1.02-.18 1.48-.4-.3 6.2-5.29 11.15-11.5 11.4.34-.59.53-1.26.53-1.98 0-.73-.2-1.43-.55-2.02 4.05-.17 7.3-3.38 7.53-7.41.75.34 1.61.49 2.51.41z" fill="#e6e9ed"/></g><g><path d="m47.47 29.98c-.68 1.21-1.98 2.02-3.47 2.02-.48 0-.93-.1-1.35-.25l.24-1.22c.07-.35.11-.71.11-1.07 0-1.67-.75-3.17-1.93-4.16.73-.8 1.77-1.3 2.93-1.3 1.47 0 2.76.79 3.44 1.98h.01c.35.59.55 1.29.55 2.02 0 .72-.19 1.39-.53 1.98z" fill="#ccd1d9"/></g><g><path d="m46 10v6c0 1.1-.9 2-2 2h-2.84c.54-1.22.84-2.58.84-4v-2c0-1.42-.3-2.78-.84-4h2.84c1.1 0 2 .9 2 2z" fill="#e6e9ed"/></g><g><path d="m45 52v6h-4-6-6-6-4v-6c0-2.21 1.79-4 4-4h18c2.21 0 4 1.79 4 4z" fill="#aab2bd"/></g><g><path d="m23 36.59c-.62-.88-1.07-1.9-1.29-3.02l-.36-1.82-.24-1.22c-.07-.35-.11-.71-.11-1.07 0-1.67.75-3.17 1.93-4.16.95-.81 2.18-1.3 3.53-1.3h5.54 5.54c1.35 0 2.58.49 3.53 1.3 1.18.99 1.93 2.49 1.93 4.16 0 .36-.04.72-.11 1.07l-.24 1.22-.36 1.82c-.22 1.12-.67 2.14-1.29 3.02-1.46 2.09-3.88 3.41-6.56 3.41h-4.88c-2.68 0-5.1-1.32-6.56-3.41z" fill="#fcd770"/></g><g><path d="m42 12v2c0 1.42-.3 2.78-.84 4h-18.32c-.54-1.22-.84-2.58-.84-4v-2c0-1.42.3-2.78.84-4h18.32c.54 1.22.84 2.58.84 4z" fill="#69d6f4"/></g><g><path d="m41.16 8h-18.32c1.54-3.53 5.06-6 9.16-6s7.62 2.47 9.16 6z" fill="#e6e9ed"/></g><g><path d="m22.84 18h18.32c-.5 1.15-1.21 2.19-2.09 3.07-1.81 1.81-4.31 2.93-7.07 2.93-4.1 0-7.62-2.47-9.16-6z" fill="#e6e9ed"/></g><g><path d="m41 58v1c0 1.66-1.34 3-3 3-.83 0-1.58-.34-2.12-.88s-.88-1.29-.88-2.12v-1z" fill="#969faa"/></g><g><path d="m41 36.59v11.41h-18v-11.41c1.46 2.09 3.88 3.41 6.56 3.41h4.88c2.68 0 5.1-1.32 6.56-3.41z" fill="#fcd770"/></g><g><circle cx="36" cy="13" fill="#969faa" r="2"/></g><g><path d="m37 30.83c0 .75-.3 1.47-.83 2l-2.46 2.46c-.46.46-1.07.71-1.71.71s-1.25-.25-1.71-.71l-2.46-2.46c-.53-.53-.83-1.25-.83-2 0-.78.32-1.49.83-2s1.22-.83 2-.83c.75 0 1.47.3 2 .83l.17.17.17-.17c.53-.53 1.25-.83 2-.83.78 0 1.49.32 2 .83s.83 1.22.83 2z" fill="#ff826e"/></g><g><circle cx="28" cy="13" fill="#969faa" r="2"/></g><g><path d="m29 58v1c0 1.66-1.34 3-3 3-.83 0-1.58-.34-2.12-.88s-.88-1.29-.88-2.12v-1z" fill="#969faa"/></g><g><path d="m16.53 26.02c.68-1.21 1.98-2.02 3.47-2.02 1.16 0 2.2.5 2.93 1.3-1.18.99-1.93 2.49-1.93 4.16 0 .36.04.72.11 1.07l.24 1.22c-.42.15-.87.25-1.35.25-1.47 0-2.76-.79-3.44-1.98h-.01c-.35-.59-.55-1.29-.55-2.02 0-.72.19-1.39.53-1.98z" fill="#ccd1d9"/></g><g><path d="m20 8h2.84c-.54 1.22-.84 2.58-.84 4v2c0 1.42.3 2.78.84 4h-2.84c-1.1 0-2-.9-2-2v-6c0-1.1.9-2 2-2z" fill="#e6e9ed"/></g><g><path d="m16.53 26.02c-.34.59-.53 1.26-.53 1.98 0 .73.2 1.43.55 2.02-4.05.17-7.3 3.38-7.53 7.41-.75-.34-1.61-.49-2.51-.41-.53.05-1.02.18-1.48.4.3-6.2 5.29-11.15 11.5-11.4z" fill="#e6e9ed"/></g></g><g><path d="m34.172 27c-.787 0-1.538.236-2.172.674-.634-.438-1.385-.674-2.172-.674-2.11 0-3.828 1.718-3.828 3.828 0 1.022.398 1.984 1.121 2.707l2.465 2.465c.645.645 1.502 1 2.414 1s1.77-.355 2.414-1l2.465-2.465c.723-.722 1.121-1.684 1.121-2.707 0-2.11-1.718-3.828-3.828-3.828zm1.293 5.121-2.465 2.465c-.535.533-1.465.533-2 0l-2.465-2.465c-.34-.34-.535-.811-.535-1.293 0-1.008.82-1.828 1.828-1.828.481 0 .953.195 1.293.535l.879.879.879-.879c.34-.34.811-.535 1.293-.535 1.008 0 1.828.82 1.828 1.828 0 .482-.195.953-.535 1.293z"/><path d="m59 9v2c1.103 0 2 .897 2 2v.785c0 2.16-1.583 4.003-3.604 4.196-1.147.11-2.242-.253-3.087-1.021-.831-.757-1.309-1.835-1.309-2.96v-1c0-1.103.897-2 2-2v-2c-2.206 0-4 1.794-4 4v1c0 1.687.716 3.305 1.965 4.44.293.266.613.496.948.697-.454 3.07-2.899 5.442-5.99 5.801-.915-1.17-2.325-1.938-3.923-1.938-1.082 0-2.128.371-2.989 1.02-.815-.522-1.752-.869-2.761-.979 1.487-1.031 2.704-2.42 3.536-4.041h2.214c1.654 0 3-1.346 3-3v-6c0-1.654-1.346-3-3-3h-2.214c-1.825-3.556-5.522-6-9.786-6s-7.961 2.444-9.786 6h-2.214c-1.654 0-3 1.346-3 3v6c0 1.654 1.346 3 3 3h2.214c.831 1.62 2.048 3.01 3.536 4.041-1.009.111-1.946.457-2.761.979-.861-.649-1.907-1.02-2.989-1.02-1.66 0-3.123.822-4.033 2.071-6.235.499-11.294 5.495-11.88 11.718-1.839 1.072-3.087 3.125-3.087 5.426v.785c0 2.206 1.794 4 4 4v-2c-1.103 0-2-.897-2-2v-.785c0-2.16 1.583-4.003 3.604-4.196 1.148-.107 2.243.254 3.087 1.021.831.757 1.309 1.835 1.309 2.96v1c0 1.103-.897 2-2 2v2c2.206 0 4-1.794 4-4v-1c0-1.687-.716-3.305-1.965-4.44-.293-.267-.612-.499-.948-.7.456-3.068 2.9-5.439 5.989-5.798.916 1.17 2.326 1.938 3.924 1.938.187 0 .379-.029.57-.053l.164.819c.226 1.131.667 2.174 1.267 3.1v10.235c-2.279.465-4 2.484-4 4.899v7h4c0 2.206 1.794 4 4 4s4-1.794 4-4h4c0 2.206 1.794 4 4 4s4-1.794 4-4h4v-7c0-2.414-1.721-4.434-4-4.899v-10.235c.599-.926 1.04-1.969 1.267-3.1l.164-.819c.189.024.381.053.568.053 1.66 0 3.123-.822 4.033-2.071 6.235-.499 11.294-5.495 11.88-11.718 1.839-1.072 3.087-3.125 3.087-5.426v-.785c0-2.206-1.794-4-4-4zm-15 0c.552 0 1 .448 1 1v6c0 .552-.448 1-1 1h-1.426c.271-.955.426-1.959.426-3v-2c0-1.041-.155-2.045-.426-3zm-21 5v-2c0-1.053.191-2.06.525-3h16.95c.334.94.525 1.947.525 3v2c0 1.053-.191 2.06-.525 3h-16.95c-.334-.94-.525-1.947-.525-3zm9-11c3.114 0 5.862 1.59 7.478 4h-14.956c1.616-2.41 4.364-4 7.478-4zm-12 14c-.552 0-1-.448-1-1v-6c0-.552.448-1 1-1h1.426c-.271.955-.426 1.959-.426 3v2c0 1.041.155 2.045.426 3zm4.522 2h14.957c-1.617 2.41-4.365 4-7.478 4s-5.863-1.59-7.479-4zm-16.328 17.126c-.579-.118-1.178-.156-1.78-.098-.072.007-.142.022-.214.032.814-4.488 4.395-8.058 8.881-8.863-.043.263-.081.528-.081.803 0 .411.064.804.158 1.186-3.516.688-6.262 3.419-6.964 6.94zm11.806-5.126c-1.654 0-3-1.346-3-3s1.346-3 3-3c.517 0 1.005.146 1.445.395-.902 1.111-1.445 2.525-1.445 4.064 0 .428.043.855.126 1.268l.051.256c-.058.004-.119.017-.177.017zm4 16v-7.938c1.545 1.217 3.484 1.938 5.559 1.938h4.883c2.075 0 4.013-.721 5.559-1.938v7.938zm2 14c-1.103 0-2-.897-2-2h4c0 1.103-.897 2-2 2zm12 0c-1.103 0-2-.897-2-2h4c0 1.103-.897 2-2 2zm6-9v5h-24v-5c0-1.654 1.346-3 3-3h18c1.654 0 3 1.346 3 3zm-2.087-21.666-.607 3.039c-.653 3.261-3.539 5.627-6.865 5.627h-4.883c-3.325 0-6.212-2.366-6.864-5.627l-.607-3.041c-.058-.284-.087-.578-.087-.873 0-2.459 2-4.459 4.459-4.459h11.082c2.459 0 4.459 2 4.459 4.459 0 .295-.029.589-.087.875zm2.087.666c-.058 0-.118-.013-.177-.017l.051-.255c.083-.414.126-.841.126-1.269 0-1.539-.543-2.953-1.445-4.064.44-.249.928-.395 1.445-.395 1.654 0 3 1.346 3 3s-1.346 3-3 3zm4.919-2.197c.043-.263.081-.528.081-.803 0-.411-.064-.804-.158-1.186 3.518-.688 6.264-3.421 6.965-6.945.396.081.798.13 1.207.13.19 0 .381-.009.572-.027.072-.007.142-.022.214-.031-.814 4.488-4.396 8.057-8.881 8.862z"/><path d="m28 10c-1.654 0-3 1.346-3 3s1.346 3 3 3 3-1.346 3-3-1.346-3-3-3zm0 4c-.552 0-1-.448-1-1s.448-1 1-1 1 .448 1 1-.448 1-1 1z"/><path d="m36 10c-1.654 0-3 1.346-3 3s1.346 3 3 3 3-1.346 3-3-1.346-3-3-3zm0 4c-.552 0-1-.448-1-1s.448-1 1-1 1 .448 1 1-.448 1-1 1z"/></g></g></svg>